{"title":"Firefly - S01 ep 1-14 DVDRip.Xvid","uid":4920629,"size":5738313775,"categoryP":"video","categoryS":"tv_shows","magnet":"?xt=urn:btih:8361cdbdd402e1e8e4414a87078227761aa7ee0a&amp;dn=Firefly+-+S01+ep+1-14+DVDRip.Xvid&amp;tr=udp%3A%2F%2Ftracker.openbittorrent.com%3A80&amp;tr=udp%3A%2F%2Fopen.demonii.com%3A1337&amp;tr=udp%3A%2F%2Ftracker.coppersurfer.tk%3A6969&amp;tr=udp%3A%2F%2Fexodus.desync.com%3A6969","seeders":1,"leechers":0,"uploader":"Atilla82","files":-1,"time":1243638862,"description":"Season 1 (1-14)\n\nExtras\n\n\nGeneral\nFormat                           : AVI\nFormat/Info                      : Audio Video Interleave\nFile size                        : 342 MiB\nOverall bit rate                 : 1 119 Kbps\nWriting application              : VirtualDubMod 1.5.10.1 (build 2366/release)\nWriting library                  : VirtualDubMod build 2366/release\n\nVideo\nFormat                           : MPEG-4 Visual\nFormat profile                   : Simple@L3\nFormat settings, Matrix          : (H.263)\nCodec ID                         : XVID\nDuration                         : 42mn 44s\nBit rate                         : 917 Kbps\nWidth                            : 704 pixels\nHeight                           : 384 pixels\nDisplay aspect ratio             : 16/9\nFrame rate                       : 23.976 fps\nResolution                       : 24 bits\nColorimetry                      : 4:2:0\nScan type                        : Progressive\nBits/(Pixel*Frame)               : 0.141\nStream size                      : 280 MiB (82%)\nWriting library                  : XviD 0.0.09 (UTC 2003-03-25)\n\nAudio\nFormat                           : AC-3\nFormat/Info                      : Audio Coding 3\nFormat profile                   : Dolby Digital\nCodec ID                         : 2000\nBit rate mode                    : Constant\nBit rate                         : 192 Kbps\nChannel(s)                       : 2 channels\nChannel positions                : L R\nSampling rate                    : 48.0 KHz\nStream size                      : 58.7 MiB (17%)\nAlignment                        : Split accross interleaves\nInterleave, duration             : 42 ms (1.00 video frame)\nInterleave, preload duration     : 500 ms\n\n","torrent":{"xt":"urn:btih:8361cdbdd402e1e8e4414a87078227761aa7ee0a","amp;dn":"Firefly+-+S01+ep+1-14+DVDRip.Xvid","amp;tr":["udp%3A%2F%2Ftracker.openbittorrent.com%3A80","udp%3A%2F%2Fopen.demonii.com%3A1337","udp%3A%2F%2Ftracker.coppersurfer.tk%3A6969","udp%3A%2F%2Fexodus.desync.com%3A6969"],"infoHash":"8361cdbdd402e1e8e4414a87078227761aa7ee0a","infoHashBuffer":{"type":"Buffer","data":[131,97,205,189,212,2,225,232,228,65,74,135,7,130,39,118,26,167,238,10]},"announce":[],"urlList":[]}}